<svg width="20" height="20" viewBox="0 0 20 20" fill="none" xmlns="http://www.w3.org/2000/svg">
<path d="M14.5061 1.5C12.91 1.5 11.191 1.90853 10.0041 3.03199C8.81719 1.90853 7.09823 1.5 5.50205 1.5C4.31514 1.5 3.05457 1.72469 1.99864 2.30685C1.40109 2.64389 1 3.36903 1 4.19631V15.7169C1 17.0446 1.99864 18.0251 3.03001 17.6983C3.8322 17.4429 4.68349 17.3306 5.50205 17.3306C6.77899 17.3306 8.13779 17.5961 9.23465 18.2702C9.72579 18.5766 10.2824 18.5766 10.7653 18.2702C11.8622 17.5859 13.221 17.3306 14.498 17.3306C15.3165 17.3306 16.1678 17.4429 16.97 17.6983C18.0014 18.0353 19 17.0548 19 15.7169V4.19631C19 3.36903 18.5989 2.64389 18.0014 2.30685C16.9536 1.72469 15.693 1.5 14.5061 1.5ZM17.3711 14.5015C17.3711 15.1449 16.8963 15.6147 16.3888 15.5024C15.7749 15.3594 15.1364 15.2981 14.5061 15.2981C13.1146 15.2981 11.1091 15.962 10.0041 16.8301V5.07465C11.1091 4.20652 13.1146 3.54266 14.5061 3.54266C15.2592 3.54266 16.0041 3.63458 16.7162 3.82863C17.0928 3.93076 17.3711 4.3495 17.3711 4.82953V14.5015Z" fill="white"/>
<path d="M11.6391 8.13872C11.3772 8.13872 11.1398 7.93445 11.0579 7.60763C10.9515 7.20931 11.1316 6.77014 11.4509 6.64758C12.7114 6.13692 14.3403 5.97351 15.8383 6.18799C16.1739 6.23905 16.4195 6.61694 16.3785 7.03569C16.3376 7.45443 16.0348 7.76083 15.6991 7.70976C14.3731 7.51571 12.9242 7.66891 11.8274 8.10808C11.7619 8.11829 11.6964 8.13872 11.6391 8.13872ZM11.6391 10.8555C11.3772 10.8555 11.1398 10.6512 11.0579 10.3244C10.9515 9.92604 11.1316 9.48687 11.4509 9.36431C12.7032 8.85365 14.3403 8.69024 15.8383 8.90472C16.1739 8.95578 16.4195 9.33367 16.3785 9.75242C16.3376 10.1712 16.0348 10.4776 15.6991 10.4265C14.3731 10.2324 12.9242 10.3856 11.8274 10.8248C11.7658 10.8444 11.7026 10.8547 11.6391 10.8555ZM11.6391 13.5722C11.3772 13.5722 11.1398 13.3679 11.0579 13.0411C10.9515 12.6428 11.1316 12.2036 11.4509 12.081C12.7032 11.5704 14.3403 11.407 15.8383 11.6214C16.1739 11.6725 16.4195 12.0504 16.3785 12.4692C16.3376 12.8879 16.0348 13.1841 15.6991 13.1432C14.3731 12.9492 12.9242 13.1024 11.8274 13.5415C11.7658 13.5611 11.7026 13.5714 11.6391 13.5722Z" fill="white"/>
</svg>
