<svg width="141" height="17" viewBox="0 0 141 17" fill="none" xmlns="http://www.w3.org/2000/svg">
<g clip-path="url(#clip0_3_2)">
<path d="M15.5189 0C13.7896 0 11.9274 0.4 10.6415 1.5C9.35566 0.4 7.4934 0 5.76415 0C4.4783 0 3.11264 0.22 1.96868 0.79C1.32132 1.12 0.886792 1.83 0.886792 2.64V13.92C0.886792 15.22 1.96868 16.18 3.08604 15.86C3.95509 15.61 4.87736 15.5 5.76415 15.5C7.14755 15.5 8.61962 15.76 9.80793 16.42C10.34 16.72 10.943 16.72 11.4662 16.42C12.6545 15.75 14.1266 15.5 15.51 15.5C16.3968 15.5 17.3191 15.61 18.1881 15.86C19.3055 16.19 20.3874 15.23 20.3874 13.92V2.64C20.3874 1.83 19.9528 1.12 19.3055 0.79C18.1704 0.22 16.8047 0 15.5189 0ZM18.6226 12.73C18.6226 13.36 18.1083 13.82 17.5585 13.71C16.8934 13.57 16.2017 13.51 15.5189 13.51C14.0113 13.51 11.8387 14.16 10.6415 15.01V3.5C11.8387 2.65 14.0113 2 15.5189 2C16.3347 2 17.1417 2.09 17.9132 2.28C18.3211 2.38 18.6226 2.79 18.6226 3.26V12.73Z" fill="#c4c7c5"/>
<path d="M12.4128 6.50009C12.1291 6.50009 11.8719 6.30009 11.7832 5.98009C11.6679 5.59009 11.863 5.16009 12.2089 5.04009C13.5745 4.54009 15.3393 4.38009 16.9621 4.59009C17.3257 4.64009 17.5917 5.01009 17.5474 5.42009C17.503 5.83009 17.1749 6.13009 16.8113 6.08009C15.3747 5.89009 13.8051 6.04009 12.6168 6.47009C12.5459 6.48009 12.4749 6.50009 12.4128 6.50009ZM12.4128 9.16009C12.1291 9.16009 11.8719 8.96009 11.7832 8.64009C11.6679 8.25009 11.863 7.82009 12.2089 7.70009C13.5657 7.20009 15.3393 7.04009 16.9621 7.25009C17.3257 7.30009 17.5917 7.67009 17.5474 8.08009C17.503 8.49009 17.1749 8.79009 16.8113 8.74009C15.3747 8.55009 13.8051 8.70009 12.6168 9.13009C12.5501 9.14925 12.4816 9.15932 12.4128 9.16009ZM12.4128 11.8201C12.1291 11.8201 11.8719 11.6201 11.7832 11.3001C11.6679 10.9101 11.863 10.4801 12.2089 10.3601C13.5657 9.86009 15.3393 9.70009 16.9621 9.91009C17.3257 9.96009 17.5917 10.3301 17.5474 10.7401C17.503 11.1501 17.1749 11.4401 16.8113 11.4001C15.3747 11.2101 13.8051 11.3601 12.6168 11.7901C12.5501 11.8093 12.4816 11.8193 12.4128 11.8201Z" fill="#c4c7c5"/>
<path d="M35.7693 15H32.8533V4.416H29.7393V2.148H38.8833V4.416H35.7693V15ZM43.3618 4.11C43.3618 4.59 43.3438 5.052 43.3078 5.496C43.2838 5.94 43.2598 6.252 43.2358 6.432H43.3798C43.5838 6.096 43.8118 5.826 44.0638 5.622C44.3278 5.406 44.6218 5.25 44.9458 5.154C45.2698 5.046 45.6178 4.992 45.9898 4.992C46.6378 4.992 47.2078 5.118 47.6998 5.37C48.2038 5.622 48.5998 6.012 48.8878 6.54C49.1758 7.068 49.3198 7.752 49.3198 8.592V15H46.4218V9.258C46.4218 8.55 46.3138 8.022 46.0978 7.674C45.8938 7.314 45.5698 7.134 45.1258 7.134C44.6818 7.134 44.3278 7.26 44.0638 7.512C43.7998 7.764 43.6138 8.13 43.5058 8.61C43.4098 9.09 43.3618 9.678 43.3618 10.374V15H40.4818V1.32H43.3618V4.11ZM55.7282 4.992C56.6042 4.992 57.3602 5.166 57.9962 5.514C58.6322 5.862 59.1242 6.366 59.4722 7.026C59.8202 7.686 59.9942 8.496 59.9942 9.456V10.752H54.1442C54.1682 11.508 54.3602 12.102 54.7202 12.534C55.0922 12.966 55.6202 13.182 56.3042 13.182C56.9042 13.182 57.4442 13.122 57.9242 13.002C58.4162 12.87 58.9202 12.672 59.4362 12.408V14.478C58.9922 14.718 58.5062 14.892 57.9782 15C57.4622 15.12 56.8202 15.18 56.0522 15.18C55.1162 15.18 54.2822 15 53.5502 14.64C52.8302 14.268 52.2602 13.71 51.8402 12.966C51.4322 12.222 51.2282 11.286 51.2282 10.158C51.2282 9.006 51.4142 8.052 51.7862 7.296C52.1702 6.528 52.6982 5.952 53.3702 5.568C54.0542 5.184 54.8402 4.992 55.7282 4.992ZM55.7822 6.9C55.3502 6.9 54.9902 7.068 54.7022 7.404C54.4142 7.74 54.2462 8.262 54.1982 8.97H57.3482C57.3482 8.574 57.2882 8.22 57.1682 7.908C57.0482 7.596 56.8742 7.35 56.6462 7.17C56.4182 6.99 56.1302 6.9 55.7822 6.9ZM70.5512 2.148C72.0992 2.148 73.2392 2.508 73.9712 3.228C74.7152 3.936 75.0872 4.914 75.0872 6.162C75.0872 6.726 75.0092 7.266 74.8532 7.782C74.6972 8.286 74.4392 8.742 74.0792 9.15C73.7192 9.546 73.2392 9.858 72.6392 10.086C72.0512 10.314 71.3252 10.428 70.4612 10.428H69.4532V15H66.5372V2.148H70.5512ZM70.4612 4.38H69.4532V8.196H70.1912C70.5752 8.196 70.9172 8.13 71.2172 7.998C71.5172 7.866 71.7512 7.656 71.9192 7.368C72.0872 7.08 72.1712 6.708 72.1712 6.252C72.1712 5.616 72.0272 5.148 71.7392 4.848C71.4632 4.536 71.0372 4.38 70.4612 4.38ZM79.8892 15H77.0092V1.32H79.8892V15ZM86.5113 4.974C87.7233 4.974 88.6593 5.262 89.3193 5.838C89.9913 6.402 90.3273 7.272 90.3273 8.448V15H88.3293L87.7713 13.668H87.6993C87.4353 14.016 87.1653 14.304 86.8893 14.532C86.6133 14.76 86.2953 14.922 85.9353 15.018C85.5753 15.126 85.1373 15.18 84.6213 15.18C84.0813 15.18 83.5953 15.072 83.1633 14.856C82.7433 14.628 82.4073 14.286 82.1553 13.83C81.9033 13.362 81.7773 12.774 81.7773 12.066C81.7773 11.022 82.1193 10.254 82.8033 9.762C83.4993 9.258 84.5193 8.982 85.8633 8.934L87.4473 8.88V8.448C87.4473 7.932 87.3333 7.554 87.1053 7.314C86.8773 7.074 86.5653 6.954 86.1693 6.954C85.7613 6.954 85.3353 7.026 84.8913 7.17C84.4473 7.302 84.0033 7.47 83.5593 7.674L82.6773 5.856C83.2053 5.58 83.7873 5.364 84.4233 5.208C85.0713 5.052 85.7673 4.974 86.5113 4.974ZM86.6193 10.482C85.9113 10.506 85.4133 10.662 85.1253 10.95C84.8493 11.238 84.7113 11.616 84.7113 12.084C84.7113 12.492 84.8073 12.786 84.9993 12.966C85.2033 13.134 85.4673 13.218 85.7913 13.218C86.2473 13.218 86.6373 13.05 86.9613 12.714C87.2973 12.366 87.4653 11.88 87.4653 11.256V10.446L86.6193 10.482ZM96.954 13.038C97.242 13.038 97.506 13.008 97.746 12.948C97.998 12.888 98.256 12.816 98.52 12.732V14.73C98.22 14.85 97.866 14.952 97.458 15.036C97.062 15.132 96.594 15.18 96.054 15.18C95.478 15.18 94.962 15.084 94.506 14.892C94.062 14.7 93.714 14.37 93.462 13.902C93.21 13.422 93.084 12.762 93.084 11.922V7.188H91.914V6.054L93.318 5.154L94.11 3.084H95.964V5.172H98.412V7.188H95.964V11.922C95.964 12.294 96.054 12.576 96.234 12.768C96.414 12.948 96.654 13.038 96.954 13.038ZM105.701 7.188H103.613V15H100.733V7.188H99.4186V5.892L100.769 5.172V4.452C100.769 3.612 100.889 2.964 101.129 2.508C101.369 2.04 101.729 1.71 102.209 1.518C102.689 1.326 103.283 1.23 103.991 1.23C104.483 1.23 104.927 1.272 105.323 1.356C105.719 1.44 106.085 1.536 106.421 1.644L105.755 3.606C105.575 3.546 105.377 3.492 105.161 3.444C104.957 3.384 104.729 3.354 104.477 3.354C104.177 3.354 103.955 3.468 103.811 3.696C103.679 3.924 103.613 4.212 103.613 4.56V5.172H105.701V7.188ZM115.708 10.068C115.708 10.884 115.6 11.61 115.384 12.246C115.18 12.882 114.88 13.422 114.484 13.866C114.088 14.298 113.602 14.628 113.026 14.856C112.462 15.072 111.826 15.18 111.118 15.18C110.458 15.18 109.846 15.072 109.282 14.856C108.718 14.628 108.232 14.298 107.824 13.866C107.428 13.422 107.116 12.882 106.888 12.246C106.672 11.61 106.564 10.884 106.564 10.068C106.564 8.976 106.75 8.058 107.122 7.314C107.494 6.558 108.022 5.982 108.706 5.586C109.39 5.19 110.212 4.992 111.172 4.992C112.06 4.992 112.84 5.19 113.512 5.586C114.196 5.982 114.73 6.558 115.114 7.314C115.51 8.058 115.708 8.976 115.708 10.068ZM109.498 10.068C109.498 10.716 109.552 11.262 109.66 11.706C109.78 12.138 109.96 12.468 110.2 12.696C110.452 12.912 110.77 13.02 111.154 13.02C111.55 13.02 111.862 12.912 112.09 12.696C112.33 12.468 112.504 12.138 112.612 11.706C112.72 11.262 112.774 10.716 112.774 10.068C112.774 9.42 112.72 8.88 112.612 8.448C112.504 8.016 112.324 7.692 112.072 7.476C111.832 7.26 111.52 7.152 111.136 7.152C110.548 7.152 110.128 7.398 109.876 7.89C109.624 8.37 109.498 9.096 109.498 10.068ZM123.067 4.992C123.223 4.992 123.391 4.998 123.571 5.01C123.751 5.022 123.889 5.04 123.985 5.064L123.751 7.584C123.655 7.56 123.529 7.542 123.373 7.53C123.217 7.506 123.037 7.494 122.833 7.494C122.569 7.494 122.299 7.542 122.023 7.638C121.759 7.722 121.513 7.86 121.285 8.052C121.069 8.244 120.889 8.502 120.745 8.826C120.613 9.138 120.547 9.528 120.547 9.996V15H117.667V5.172H119.827L120.259 6.828H120.403C120.583 6.492 120.805 6.186 121.069 5.91C121.333 5.634 121.633 5.412 121.969 5.244C122.317 5.076 122.683 4.992 123.067 4.992ZM136.596 4.992C137.664 4.992 138.468 5.28 139.008 5.856C139.56 6.42 139.836 7.332 139.836 8.592V15H136.974V9.258C136.974 8.55 136.866 8.022 136.65 7.674C136.446 7.314 136.134 7.134 135.714 7.134C135.114 7.134 134.694 7.386 134.454 7.89C134.214 8.394 134.094 9.12 134.094 10.068V15H131.214V9.258C131.214 8.79 131.166 8.4 131.07 8.088C130.986 7.776 130.854 7.542 130.674 7.386C130.494 7.218 130.254 7.134 129.954 7.134C129.546 7.134 129.222 7.26 128.982 7.512C128.754 7.764 128.592 8.13 128.496 8.61C128.4 9.09 128.352 9.678 128.352 10.374V15H125.472V5.172H127.65L128.064 6.432H128.172C128.352 6.096 128.574 5.826 128.838 5.622C129.114 5.406 129.426 5.25 129.774 5.154C130.134 5.046 130.518 4.992 130.926 4.992C131.598 4.992 132.162 5.112 132.618 5.352C133.086 5.58 133.452 5.94 133.716 6.432H133.878C134.166 5.928 134.55 5.562 135.03 5.334C135.522 5.106 136.044 4.992 136.596 4.992Z" fill="#c4c7c5"/>
</g>
<defs>
<clipPath id="clip0_3_2">
<rect width="141" height="17" fill="white"/>
</clipPath>
</defs>
</svg>
