<svg width="126" height="17" viewBox="0 0 126 17" fill="none" xmlns="http://www.w3.org/2000/svg">
<path d="M13.8679 0C12.3226 0 10.6585 0.4 9.50943 1.5C8.36038 0.4 6.69623 0 5.15094 0C4.00189 0 2.78151 0.22 1.75925 0.79C1.18075 1.12 0.792453 1.83 0.792453 2.64V13.92C0.792453 15.22 1.75925 16.18 2.75774 15.86C3.53434 15.61 4.35849 15.5 5.15094 15.5C6.38717 15.5 7.70264 15.76 8.76453 16.42C9.24 16.72 9.77887 16.72 10.2464 16.42C11.3083 15.75 12.6238 15.5 13.86 15.5C14.6525 15.5 15.4766 15.61 16.2532 15.86C17.2517 16.19 18.2185 15.23 18.2185 13.92V2.64C18.2185 1.83 17.8302 1.12 17.2517 0.79C16.2374 0.22 15.017 0 13.8679 0ZM16.6415 12.73C16.6415 13.36 16.1819 13.82 15.6906 13.71C15.0962 13.57 14.4781 13.51 13.8679 13.51C12.5208 13.51 10.5792 14.16 9.50943 15.01V3.5C10.5792 2.65 12.5208 2 13.8679 2C14.597 2 15.3181 2.09 16.0075 2.28C16.3721 2.38 16.6415 2.79 16.6415 3.26V12.73Z" fill="white"/>
<path d="M11.0923 6.50009C10.8387 6.50009 10.6089 6.30009 10.5297 5.98009C10.4267 5.59009 10.601 5.16009 10.9101 5.04009C12.1304 4.54009 13.7074 4.38009 15.1576 4.59009C15.4825 4.64009 15.7203 5.01009 15.6806 5.42009C15.641 5.83009 15.3478 6.13009 15.0229 6.08009C13.7391 5.89009 12.3365 6.04009 11.2746 6.47009C11.2112 6.48009 11.1478 6.50009 11.0923 6.50009ZM11.0923 9.16009C10.8387 9.16009 10.6089 8.96009 10.5297 8.64009C10.4267 8.25009 10.601 7.82009 10.9101 7.70009C12.1225 7.20009 13.7074 7.04009 15.1576 7.25009C15.4825 7.30009 15.7203 7.67009 15.6806 8.08009C15.641 8.49009 15.3478 8.79009 15.0229 8.74009C13.7391 8.55009 12.3365 8.70009 11.2746 9.13009C11.215 9.14925 11.1538 9.15932 11.0923 9.16009ZM11.0923 11.8201C10.8387 11.8201 10.6089 11.6201 10.5297 11.3001C10.4267 10.9101 10.601 10.4801 10.9101 10.3601C12.1225 9.86009 13.7074 9.70009 15.1576 9.91009C15.4825 9.96009 15.7203 10.3301 15.6806 10.7401C15.641 11.1501 15.3478 11.4401 15.0229 11.4001C13.7391 11.2101 12.3365 11.3601 11.2746 11.7901C11.215 11.8093 11.1538 11.8193 11.0923 11.8201Z" fill="white"/>
<path d="M32.8115 5.6123H29.7422V14H27.8145V5.6123H24.7861V4.04688H32.8115V5.6123ZM35.874 7.62207C35.9697 7.48079 36.0745 7.35091 36.1885 7.23242C36.307 7.10938 36.43 7.00228 36.5576 6.91113C36.7536 6.76986 36.9701 6.66048 37.207 6.58301C37.444 6.50553 37.6947 6.4668 37.959 6.4668C38.3464 6.4668 38.7018 6.52604 39.0254 6.64453C39.349 6.75846 39.627 6.93848 39.8594 7.18457C40.0918 7.43066 40.2718 7.7474 40.3994 8.13477C40.5316 8.51758 40.5977 8.98014 40.5977 9.52246V14H38.6973V9.50879C38.6973 9.24447 38.6631 9.0166 38.5947 8.8252C38.5309 8.63379 38.4375 8.47884 38.3145 8.36035C38.1914 8.24186 38.0433 8.15527 37.8701 8.10059C37.6969 8.04134 37.501 8.01172 37.2822 8.01172C37.1136 8.01172 36.9564 8.02767 36.8105 8.05957C36.6647 8.09147 36.5326 8.13932 36.4141 8.20312C36.3047 8.25781 36.2044 8.32389 36.1133 8.40137C36.0267 8.47884 35.9469 8.56543 35.874 8.66113V14H33.9736V3.5H35.874V7.62207ZM45.9707 14.1367C45.401 14.1367 44.8838 14.0433 44.4189 13.8564C43.9541 13.6696 43.5553 13.4144 43.2227 13.0908C42.89 12.7718 42.6325 12.3958 42.4502 11.9629C42.2725 11.5254 42.1836 11.0583 42.1836 10.5615V10.2881C42.1836 9.72298 42.2725 9.20801 42.4502 8.74316C42.6279 8.27376 42.8763 7.87044 43.1953 7.5332C43.5143 7.19596 43.8926 6.93392 44.3301 6.74707C44.7676 6.56022 45.2438 6.4668 45.7588 6.4668C46.292 6.4668 46.766 6.55566 47.1807 6.7334C47.5999 6.90658 47.9554 7.15267 48.2471 7.47168C48.5342 7.79069 48.7529 8.17578 48.9033 8.62695C49.0537 9.07357 49.1289 9.56803 49.1289 10.1104V10.917H44.1113V10.9375C44.1751 11.2337 44.2572 11.473 44.3574 11.6553C44.4577 11.833 44.5921 11.9948 44.7607 12.1406C44.9339 12.291 45.1322 12.4072 45.3555 12.4893C45.5788 12.5713 45.8226 12.6123 46.0869 12.6123C46.4606 12.6123 46.8229 12.5417 47.1738 12.4004C47.5247 12.2591 47.8096 12.0472 48.0283 11.7646L48.9785 12.79C48.737 13.1318 48.3542 13.4417 47.8301 13.7197C47.306 13.9977 46.6862 14.1367 45.9707 14.1367ZM45.7451 8.00488C45.5309 8.00488 45.335 8.04362 45.1572 8.12109C44.9795 8.19401 44.8245 8.30111 44.6924 8.44238C44.5557 8.58366 44.4417 8.75228 44.3506 8.94824C44.2594 9.14421 44.1911 9.36296 44.1455 9.60449H47.2627V9.4541C47.2627 9.25358 47.2262 9.06445 47.1533 8.88672C47.0804 8.70898 46.9801 8.55404 46.8525 8.42188C46.7249 8.29427 46.5677 8.19401 46.3809 8.12109C46.1986 8.04362 45.9867 8.00488 45.7451 8.00488ZM61.1738 10.3496V14H59.2529V4.04688H62.6572C63.1995 4.04688 63.6895 4.12663 64.127 4.28613C64.5645 4.44108 64.9382 4.65755 65.248 4.93555C65.5534 5.2181 65.7881 5.55534 65.9521 5.94727C66.1208 6.33919 66.2051 6.77441 66.2051 7.25293C66.2051 7.69954 66.1208 8.11198 65.9521 8.49023C65.7881 8.86849 65.5534 9.19434 65.248 9.46777C64.9382 9.74577 64.5645 9.96224 64.127 10.1172C63.6895 10.2721 63.1995 10.3496 62.6572 10.3496H61.1738ZM61.1738 8.79102H62.6572C62.9307 8.79102 63.1676 8.75 63.3682 8.66797C63.5687 8.58594 63.7373 8.47428 63.874 8.33301C64.0062 8.19173 64.1042 8.02995 64.168 7.84766C64.2363 7.66081 64.2705 7.46712 64.2705 7.2666C64.2705 7.03418 64.2363 6.81771 64.168 6.61719C64.1042 6.41667 64.0062 6.24121 63.874 6.09082C63.7373 5.94043 63.5687 5.82194 63.3682 5.73535C63.1676 5.64876 62.9307 5.60547 62.6572 5.60547H61.1738V8.79102ZM68.0029 3.5H72.1387V12.4551H74.2578V14H68.0029V12.4551H70.2178V5.05176H68.0029V3.5ZM80.6357 14C80.5902 13.9089 80.5514 13.804 80.5195 13.6855C80.4876 13.5671 80.4603 13.4417 80.4375 13.3096C80.3327 13.4235 80.2119 13.5306 80.0752 13.6309C79.9385 13.7311 79.7881 13.8177 79.624 13.8906C79.4554 13.9681 79.2708 14.0273 79.0703 14.0684C78.8698 14.1139 78.6533 14.1367 78.4209 14.1367C78.0426 14.1367 77.694 14.082 77.375 13.9727C77.0605 13.8633 76.7894 13.7106 76.5615 13.5146C76.3337 13.3187 76.1559 13.0863 76.0283 12.8174C75.9007 12.5439 75.8369 12.2477 75.8369 11.9287C75.8369 11.5186 75.9167 11.1562 76.0762 10.8418C76.2357 10.5228 76.4749 10.2607 76.7939 10.0557C77.0811 9.86882 77.4342 9.72754 77.8535 9.63184C78.2773 9.53158 78.7627 9.48145 79.3096 9.48145H80.3691V9.04395C80.3691 8.87077 80.3418 8.71582 80.2871 8.5791C80.2324 8.43783 80.1504 8.31706 80.041 8.2168C79.9271 8.11198 79.7835 8.03223 79.6104 7.97754C79.4417 7.91829 79.2435 7.88867 79.0156 7.88867C78.8151 7.88867 78.6419 7.91374 78.4961 7.96387C78.3503 8.00944 78.2318 8.07552 78.1406 8.16211C78.0586 8.23958 77.9971 8.33301 77.9561 8.44238C77.9196 8.55176 77.9014 8.67253 77.9014 8.80469H76.001C76.001 8.49023 76.0693 8.19173 76.2061 7.90918C76.3473 7.62663 76.5524 7.37826 76.8213 7.16406C77.0856 6.94987 77.4092 6.78125 77.792 6.6582C78.1794 6.5306 78.6214 6.4668 79.1182 6.4668C79.5648 6.4668 79.9795 6.52148 80.3623 6.63086C80.7497 6.74023 81.0846 6.90202 81.3672 7.11621C81.6497 7.3304 81.8708 7.60156 82.0303 7.92969C82.1898 8.25326 82.2695 8.62923 82.2695 9.05762V12.2295C82.2695 12.626 82.2946 12.9541 82.3447 13.2139C82.3949 13.4736 82.4678 13.6969 82.5635 13.8838V14H80.6357ZM78.8242 12.667C79.0156 12.667 79.1934 12.6442 79.3574 12.5986C79.5215 12.5531 79.6696 12.4938 79.8018 12.4209C79.9339 12.348 80.0479 12.266 80.1436 12.1748C80.2393 12.0791 80.3145 11.9834 80.3691 11.8877V10.6162H79.3984C79.1022 10.6162 78.8493 10.6458 78.6396 10.7051C78.43 10.7598 78.2591 10.8372 78.127 10.9375C77.9948 11.0423 77.8968 11.1676 77.833 11.3135C77.7692 11.4548 77.7373 11.6097 77.7373 11.7783C77.7373 11.9105 77.7601 12.0335 77.8057 12.1475C77.8558 12.2568 77.9264 12.3503 78.0176 12.4277C78.1087 12.5007 78.2204 12.5599 78.3525 12.6055C78.4893 12.6465 78.6465 12.667 78.8242 12.667ZM87.9092 4.79199V6.60352H90.6709V8.00488H87.9092V11.1836C87.9092 11.4525 87.9388 11.6781 87.998 11.8604C88.0618 12.0381 88.1507 12.1794 88.2646 12.2842C88.3786 12.3936 88.5153 12.471 88.6748 12.5166C88.8389 12.5622 89.0212 12.585 89.2217 12.585C89.3675 12.585 89.5156 12.5781 89.666 12.5645C89.821 12.5508 89.9691 12.5326 90.1104 12.5098C90.2471 12.4915 90.3747 12.471 90.4932 12.4482C90.6162 12.4255 90.721 12.4027 90.8076 12.3799L90.9922 13.6855C90.86 13.763 90.7051 13.8314 90.5273 13.8906C90.3496 13.9453 90.1605 13.9909 89.96 14.0273C89.7594 14.0638 89.5498 14.0911 89.3311 14.1094C89.1169 14.1322 88.9049 14.1436 88.6953 14.1436C88.2897 14.1436 87.9206 14.0911 87.5879 13.9863C87.2598 13.877 86.9795 13.7083 86.7471 13.4805C86.5101 13.2572 86.3278 12.9723 86.2002 12.626C86.0726 12.2751 86.0088 11.8558 86.0088 11.3682V8.00488H84.3203V6.60352H86.0088V4.79199H87.9092ZM94.6699 14V8.00488H92.7285V6.60352H94.6699V6.2002C94.6699 5.71257 94.7474 5.2819 94.9023 4.9082C95.0573 4.53451 95.2783 4.22005 95.5654 3.96484C95.8525 3.70964 96.2012 3.51823 96.6113 3.39062C97.0215 3.25846 97.4795 3.19238 97.9854 3.19238C98.1449 3.19238 98.2975 3.19922 98.4434 3.21289C98.5938 3.22201 98.7396 3.23568 98.8809 3.25391C99.0221 3.27214 99.1634 3.29264 99.3047 3.31543C99.4505 3.33822 99.6009 3.36328 99.7559 3.39062L99.6328 4.88086C99.4596 4.8444 99.2637 4.8125 99.0449 4.78516C98.8262 4.75781 98.5687 4.74414 98.2725 4.74414C97.9535 4.74414 97.6823 4.7806 97.459 4.85352C97.2357 4.92643 97.0579 5.03353 96.9258 5.1748C96.8073 5.29329 96.7184 5.43913 96.6592 5.6123C96.6045 5.78548 96.5771 5.98145 96.5771 6.2002V6.60352H99.2432V8.00488H96.5771V14H94.6699ZM100.979 10.2334C100.979 9.69564 101.057 9.19889 101.212 8.74316C101.367 8.28288 101.595 7.88411 101.896 7.54688C102.192 7.20964 102.554 6.94531 102.982 6.75391C103.415 6.5625 103.91 6.4668 104.466 6.4668C105.022 6.4668 105.516 6.5625 105.949 6.75391C106.382 6.94531 106.749 7.20964 107.05 7.54688C107.346 7.88411 107.572 8.28288 107.727 8.74316C107.882 9.19889 107.959 9.69564 107.959 10.2334V10.377C107.959 10.9193 107.882 11.4206 107.727 11.8809C107.572 12.3366 107.346 12.7331 107.05 13.0703C106.754 13.4076 106.389 13.6719 105.956 13.8633C105.523 14.0501 105.031 14.1436 104.479 14.1436C103.924 14.1436 103.427 14.0501 102.989 13.8633C102.556 13.6719 102.192 13.4076 101.896 13.0703C101.595 12.7331 101.367 12.3366 101.212 11.8809C101.057 11.4206 100.979 10.9193 100.979 10.377V10.2334ZM102.88 10.377C102.88 10.6868 102.91 10.9785 102.969 11.252C103.028 11.5208 103.121 11.7555 103.249 11.9561C103.377 12.1611 103.541 12.3229 103.741 12.4414C103.946 12.5599 104.192 12.6191 104.479 12.6191C104.757 12.6191 104.997 12.5599 105.197 12.4414C105.398 12.3229 105.562 12.1611 105.689 11.9561C105.812 11.7555 105.904 11.5208 105.963 11.252C106.022 10.9785 106.052 10.6868 106.052 10.377V10.2334C106.052 9.93262 106.022 9.64779 105.963 9.37891C105.904 9.11003 105.812 8.87305 105.689 8.66797C105.562 8.46289 105.398 8.30111 105.197 8.18262C104.997 8.06413 104.753 8.00488 104.466 8.00488C104.183 8.00488 103.942 8.06413 103.741 8.18262C103.541 8.30111 103.377 8.46289 103.249 8.66797C103.121 8.87305 103.028 9.11003 102.969 9.37891C102.91 9.64779 102.88 9.93262 102.88 10.2334V10.377ZM114.959 6.4668C115.246 6.4668 115.51 6.4873 115.752 6.52832C115.998 6.56478 116.196 6.60579 116.347 6.65137L116.066 8.54492C115.816 8.48568 115.558 8.44238 115.294 8.41504C115.034 8.38314 114.786 8.36719 114.549 8.36719C114.303 8.36719 114.079 8.38997 113.879 8.43555C113.683 8.47656 113.507 8.54036 113.353 8.62695C113.166 8.72721 113.006 8.85482 112.874 9.00977C112.742 9.16471 112.632 9.34701 112.546 9.55664V14H110.646V6.60352H112.416L112.491 7.64941L112.505 7.81348C112.806 7.39421 113.166 7.06608 113.585 6.8291C114.004 6.58757 114.462 6.4668 114.959 6.4668ZM119.238 6.60352L119.293 7.49902C119.434 7.18001 119.628 6.92936 119.874 6.74707C120.125 6.56022 120.428 6.4668 120.783 6.4668C120.956 6.4668 121.111 6.4873 121.248 6.52832C121.385 6.56934 121.503 6.63314 121.604 6.71973C121.681 6.78353 121.747 6.861 121.802 6.95215C121.861 7.03874 121.911 7.139 121.952 7.25293C122.016 7.14355 122.087 7.04557 122.164 6.95898C122.246 6.86784 122.335 6.79036 122.431 6.72656C122.549 6.64453 122.684 6.58073 122.834 6.53516C122.984 6.48958 123.148 6.4668 123.326 6.4668C123.549 6.4668 123.757 6.50781 123.948 6.58984C124.144 6.67188 124.315 6.80176 124.461 6.97949C124.602 7.16178 124.712 7.39648 124.789 7.68359C124.871 7.96615 124.912 8.3125 124.912 8.72266V14H123.183V8.71582C123.183 8.57454 123.167 8.45833 123.135 8.36719C123.107 8.27604 123.069 8.20312 123.019 8.14844C122.968 8.09831 122.909 8.06413 122.841 8.0459C122.777 8.02311 122.711 8.01172 122.643 8.01172C122.57 8.01172 122.504 8.02083 122.444 8.03906C122.39 8.05729 122.337 8.08236 122.287 8.11426C122.246 8.14616 122.21 8.18262 122.178 8.22363C122.146 8.26009 122.118 8.30339 122.096 8.35352C122.096 8.36263 122.096 8.38314 122.096 8.41504C122.096 8.44694 122.096 8.49023 122.096 8.54492V14H120.421V8.70898C120.421 8.56771 120.407 8.4515 120.38 8.36035C120.353 8.26921 120.316 8.19857 120.271 8.14844C120.22 8.09831 120.163 8.06413 120.1 8.0459C120.036 8.02311 119.967 8.01172 119.895 8.01172C119.812 8.01172 119.74 8.02539 119.676 8.05273C119.612 8.08008 119.555 8.11882 119.505 8.16895C119.468 8.2054 119.437 8.2487 119.409 8.29883C119.382 8.34896 119.357 8.40365 119.334 8.46289V14H117.604V6.60352H119.238Z" fill="white"/>
</svg>
