<svg width="270" height="166" viewBox="0 0 270 166" fill="none" xmlns="http://www.w3.org/2000/svg">
<path d="M16 23V23C16 19.134 19.134 16 23 16V16H134V16C137.866 16 141 19.134 141 23V23V116.5H124V33H33V116.5H16V23Z" fill="#DEDDDA"/>
<path d="M16 116H96.5V126V126C96.5 129.866 93.366 133 89.5 133V133H23V133C19.134 133 16 129.866 16 126V126V116Z" fill="#77767B"/>
<path d="M96 116H213V126V126C213 129.866 209.866 133 206 133V133H89V133C92.866 133 96 129.866 96 126V126V116Z" fill="#9D9C99"/>
<rect x="33" y="33" width="91" height="83" fill="#151515"/>
<rect x="36" y="36" width="24" height="6" fill="#46A6FF"/>
<rect x="63" y="36" width="11" height="6" fill="#46A6FF"/>
<rect x="77" y="36" width="34" height="6" fill="#E3C040"/>
<rect x="36" y="45" width="3" height="6" fill="#D9D9D9"/>
<rect x="42" y="54" width="3" height="6" fill="#46A6FF"/>
<rect x="42" y="72" width="6" height="6" fill="#B566D0"/>
<rect x="51" y="72" width="18" height="6" fill="#D9D9D9"/>
<rect x="48" y="54" width="6" height="6" fill="#D9D9D9"/>
<rect x="63" y="54" width="15" height="6" fill="#855F32"/>
<rect x="57" y="54" width="3" height="6" fill="#D9D9D9"/>
<rect x="48" y="81" width="9" height="6" fill="#5F9D55"/>
<rect x="48" y="90" width="15" height="6" fill="#5F9D55"/>
<rect x="66" y="90" width="12" height="6" fill="#E3C040"/>
<rect x="60" y="81" width="15" height="6" fill="#E3C040"/>
<rect x="36" y="108" width="3" height="6" fill="#D9D9D9"/>
<rect x="42" y="99" width="3" height="6" fill="#D9D9D9"/>
<rect x="148" y="127.5" width="99.5" height="16" fill="white"/>
<rect x="148" y="137" width="99.5" height="3" fill="#E9E9E9"/>
<rect x="148" y="131" width="99.5" height="3" fill="#E9E9E9"/>
<path d="M141 143H245V143C246.105 143 247 142.105 247 141V141V130V130C247 128.895 246.105 128 245 128V128H141V128C141 124.134 144.134 121 148 121V121H247V121C250.866 121 254 124.134 254 128V128V143V143C254 146.866 250.866 150 247 150V150H148V150C144.134 150 141 146.866 141 143V143Z" fill="#E01B24"/>
<rect width="71.5" height="6" transform="matrix(-1 0 0 1 247 103.5)" fill="white"/>
<rect width="71.5" height="5.5" transform="matrix(-1 0 0 1 247 109)" fill="#E9E9E9"/>
<path d="M254 114H178H176V112V106V104H178H254V104C254 100.134 250.866 97 247 97V97H176V97C172.134 97 169 100.134 169 104V104V114V114C169 117.866 172.134 121 176 121V121H247V121C250.866 121 254 117.866 254 114V114Z" fill="#57E389"/>
<path d="M208 68C208 66.3431 209.343 65 211 65H228C229.657 65 231 66.3431 231 68V97H208V68Z" fill="#D9D9D9"/>
<path d="M203 72H209V75H204V75C202.895 75 202 75.8954 202 77V77V85V85C202 86.1046 202.895 87 204 87V87H209V90H203V90C200.791 90 199 88.2091 199 86V86V76V76C199 73.7909 200.791 72 203 72V72Z" fill="#D9D9D9"/>
<path d="M219.5 62C219.5 61 219 60.5 219 59.5C219 58.5 219.5 58 219.5 57C219.5 56 219 55.5 219 54.5C219 53.5 219.5 53 219.5 52" stroke="#E4E4E4" stroke-opacity="0.5" stroke-width="2" stroke-linecap="round"/>
<path d="M215.5 62C215.5 61 215 60.5 215 59.5C215 58.5 215.5 58 215.5 57C215.5 56 215 55.5 215 54.5C215 53.5 215.5 53 215.5 52" stroke="#E4E4E4" stroke-opacity="0.5" stroke-width="2" stroke-linecap="round"/>
<path d="M223.5 62C223.5 61 223 60.5 223 59.5C223 58.5 223.5 58 223.5 57C223.5 56 223 55.5 223 54.5C223 53.5 223.5 53 223.5 52" stroke="#E4E4E4" stroke-opacity="0.5" stroke-width="2" stroke-linecap="round"/>
</svg>
