<svg width="270" height="166" viewBox="0 0 270 166" fill="none" xmlns="http://www.w3.org/2000/svg">
<path d="M16 23L23 16H134L141 23V116.5H124V33H33V116.5H16V23Z" fill="#DEDDDA"/>
<path d="M16 116H96.5V126L89.5 133H23L16 126V116Z" fill="#77767B"/>
<path d="M96 116H213V126L206 133H89L96 126V116Z" fill="#9D9C99"/>
<rect x="33" y="33" width="91" height="83" fill="#151515"/>
<rect x="36" y="36" width="24" height="6" fill="#46A6FF"/>
<rect x="63" y="36" width="11" height="6" fill="#46A6FF"/>
<rect x="77" y="36" width="34" height="6" fill="#E3C040"/>
<rect x="36" y="45" width="3" height="6" fill="#D9D9D9"/>
<rect x="42" y="54" width="3" height="6" fill="#46A6FF"/>
<rect x="42" y="72" width="6" height="6" fill="#B566D0"/>
<rect x="51" y="72" width="18" height="6" fill="#D9D9D9"/>
<rect x="48" y="54" width="6" height="6" fill="#D9D9D9"/>
<rect x="63" y="54" width="15" height="6" fill="#855F32"/>
<rect x="57" y="54" width="3" height="6" fill="#D9D9D9"/>
<rect x="48" y="81" width="9" height="6" fill="#5F9D55"/>
<rect x="48" y="90" width="15" height="6" fill="#5F9D55"/>
<rect x="66" y="90" width="12" height="6" fill="#E3C040"/>
<rect x="60" y="81" width="15" height="6" fill="#E3C040"/>
<rect x="36" y="108" width="3" height="6" fill="#D9D9D9"/>
<rect x="42" y="99" width="3" height="6" fill="#D9D9D9"/>
<rect x="148" y="127.5" width="99.5" height="16" fill="white"/>
<rect x="148" y="137" width="99.5" height="3" fill="#E9E9E9"/>
<rect x="148" y="131" width="99.5" height="3" fill="#E9E9E9"/>
<path d="M141 143H245L247 141V130L245 128H141L148 121H247L254 128V143L247 150H148L141 143Z" fill="#E01B24"/>
<rect width="71.5" height="6" transform="matrix(-1 0 0 1 247 103.5)" fill="white"/>
<rect width="71.5" height="5.5" transform="matrix(-1 0 0 1 247 109)" fill="#E9E9E9"/>
<path d="M254 114H178L176 112V106L178 104H254L247 97H176L169 104V114L176 121H247L254 114Z" fill="#57E389"/>
<rect x="208" y="65" width="22" height="32" fill="#D9D9D9"/>
<path d="M203 72H209V75H204L202 77V85L204 87H209V90H203L199 86V76L203 72Z" fill="#D9D9D9"/>
</svg>
