<svg width="270" height="170" viewBox="0 0 270 170" fill="none" xmlns="http://www.w3.org/2000/svg">
    <path d="M96 118H213V128L206 135H89L96 128V118Z" fill="#9D9C99"/>
    <path d="M16 118H96V128L89 135H23L16 128V118Z" fill="#77767B"/>
    <path d="M16 25L23 18H134L141 25V118H124V35H33V118H16V25Z" fill="#DEDDDA"/>
    <rect x="33" y="35" width="91" height="83" fill="#151515"/>
    <rect x="36" y="38" width="24" height="6" fill="#46A6FF"/>
    <rect x="63" y="38" width="11" height="6" fill="#46A6FF"/>
    <rect x="77" y="38" width="34" height="6" fill="#E3C040"/>
    <rect x="36" y="47" width="3" height="6" fill="#D9D9D9"/>
    <rect x="42" y="56" width="3" height="6" fill="#46A6FF"/>
    <rect x="42" y="74" width="6" height="6" fill="#B566D0"/>
    <rect x="51" y="74" width="18" height="6" fill="#D9D9D9"/>
    <rect x="48" y="56" width="6" height="6" fill="#D9D9D9"/>
    <rect x="63" y="56" width="15" height="6" fill="#855F32"/>
    <rect x="57" y="56" width="3" height="6" fill="#D9D9D9"/>
    <rect x="48" y="83" width="9" height="6" fill="#5F9D55"/>
    <rect x="48" y="92" width="15" height="6" fill="#5F9D55"/>
    <rect x="66" y="92" width="12" height="6" fill="#E3C040"/>
    <rect x="60" y="83" width="15" height="6" fill="#E3C040"/>
    <rect x="36" y="110" width="3" height="6" fill="#D9D9D9"/>
    <rect x="42" y="101" width="3" height="6" fill="#D9D9D9"/>
    <rect x="148" y="130" width="99" height="3" fill="white"/>
    <rect x="148" y="136" width="99" height="3" fill="white"/>
    <rect x="148" y="133" width="99" height="3" fill="#E9E9E9"/>
    <rect x="148" y="142" width="99" height="3" fill="white"/>
    <rect x="148" y="139" width="99" height="3" fill="#E9E9E9"/>
    <path d="M141 145H245L247 143V132L245 130H141L148 123H247L254 130V145L247 152H148L141 145Z" fill="#E01B24"/>
    <rect width="71" height="5" transform="matrix(-1 0 0 1 247 106)" fill="white"/>
    <rect width="71" height="5" transform="matrix(-1 0 0 1 247 111)" fill="#E9E9E9"/>
    <path d="M254 116H178L176 114V108L178 106H254L247 99H176L169 106V116L176 123H247L254 116Z" fill="#57E389"/>
    <rect x="209" y="67" width="21" height="32" fill="#D9D9D9"/>
    <path d="M203 74H209V77H204L202 79V87L204 89H209V92H203L199 88V78L203 74Z" fill="#D9D9D9"/>
</svg>
